<svg width="20" height="21" viewBox="0 0 20 21" fill="none" xmlns="http://www.w3.org/2000/svg">
<path class="brand-color" fill-rule="evenodd" clip-rule="evenodd" d="M0 3.58537C0 1.60522 1.57657 0 3.52136 0H13.5824C15.5272 0 17.1037 1.60522 17.1037 3.58537V13.3171L14.0854 10.2439V3.58537C14.0854 3.30249 13.8602 3.07317 13.5824 3.07317H3.52136C3.24353 3.07317 3.01831 3.30249 3.01831 3.58537V17.4146C3.01831 17.6975 3.24353 17.9268 3.52136 17.9268H8.55187H13.5824C13.8602 17.9268 14.0854 17.6975 14.0854 17.4146V14.9779L20 21H13.5824H8.55187H3.52136C1.57657 21 0 19.3948 0 17.4146V3.58537Z" fill="#E74C3C"></path>
</svg>